<svg width="94" height="133" viewBox="0 0 94 133" fill="none" xmlns="http://www.w3.org/2000/svg">
<path d="M46.9427 132.664L8.68838 122.008L0.163391 26.0717H93.8366L85.3028 121.994L46.9427 132.664Z" fill="#264DE4"/>
<path d="M77.9969 115.886L85.2892 33.9158H47V124.508L77.9969 115.886Z" fill="#2965F1"/>
<path d="M19.7066 69.4974L20.7575 81.2637H47V69.4974H19.7066Z" fill="#EBEBEB"/>
<path d="M17.5945 45.6824L18.6605 57.4486H47V45.6824H17.5945Z" fill="#EBEBEB"/>
<path d="M47 100.056L46.9486 100.069L33.8885 96.5311L33.0535 87.1471H21.2814L22.9242 105.622L46.946 112.312L47 112.298V100.056Z" fill="#EBEBEB"/>
<path d="M22.209 0H36.4118V5.95958H28.1486V11.9192H36.4125V17.8784H22.209V0Z" fill="black"/>
<path d="M39.2527 0H53.4559V5.18221H45.1923V6.21858H53.4559V18.1377H39.2531V12.6958H47.5166V11.6594H39.2523V0H39.2527Z" fill="black"/>
<path d="M56.2968 0H70.5V5.18221H62.2364V6.21858H70.5V18.1377H56.2968V12.6958H64.5604V11.6594H56.2972V0H56.2968Z" fill="black"/>
<path d="M74.2185 69.4975L76.3353 45.6824H46.9596V57.4486H63.4838L62.4167 69.4975H46.9596V81.2637H61.4L60.0385 96.5237L46.9592 100.066V112.307L71.0001 105.622L71.1763 103.634L73.9325 72.6571L74.2185 69.4975Z" fill="white"/>
</svg>
