<svg width="116" height="116" viewBox="0 0 116 116" fill="none" xmlns="http://www.w3.org/2000/svg">
<path d="M60.6789 7.3844C59.4362 7.38934 58.2446 7.87976 57.3584 8.75102L57.3113 8.78727L26.1725 26.7854L57.2243 57.8372V57.8589L94.5618 95.1964L101.678 82.3784L76.009 20.7643L64.0465 8.80177C63.6069 8.35721 63.0836 8.00405 62.5069 7.76265C61.9302 7.52126 61.3114 7.3964 60.6861 7.39527L60.6789 7.3844Z" fill="#66C3FA"/>
<path d="M26.2812 26.644L8.29398 57.7502L8.25773 57.7973C7.38513 58.6873 6.89362 59.8823 6.88748 61.1287C6.88817 61.752 7.01252 62.369 7.25333 62.944C7.49413 63.5189 7.84661 64.0404 8.29036 64.4782L23.2 79.3878L81.5045 102.323L94.685 95.0007L94.3225 94.6382H94.2319L57.681 58.0257H57.6375L26.2812 26.644Z" fill="#215896"/>
<path d="M26.071 26.6874L57.8405 58.4895H57.8876L94.453 95.102L108.369 92.4485L108.387 51.2576L93.6917 36.8555C90.0275 33.5856 85.4359 31.5381 80.5547 30.9975V30.838L26.071 26.6874Z" fill="#235997"/>
<path d="M26.303 26.8646L58.087 58.6486V58.6957L94.6705 95.2793L92.0098 109.196H50.8298L36.4349 94.4926C33.1672 90.8264 31.1222 86.2336 30.5842 81.352H30.4247L26.303 26.8646Z" fill="#58B6F0"/>
</svg>
