<svg width="338" height="255" viewBox="0 0 338 255" fill="none" xmlns="http://www.w3.org/2000/svg">
<g clip-path="url(#clip0)">
<path d="M76.8184 253.745V123.061L36.3178 85.9826L0 65.4069V230.683C0 243.443 10.3314 253.745 23.0461 253.745H76.8184Z" fill="#4285F4"/>
<path d="M261.182 253.745H314.954C327.707 253.745 338 243.405 338 230.683V65.4081L296.864 88.9752L261.182 123.061V253.745Z" fill="#34A853"/>
<path d="M76.8184 123.061L71.3074 71.9986L76.8184 23.1271L169 92.3127L261.182 23.1271L267.347 69.36L261.182 123.061L169 192.246L76.8184 123.061Z" fill="#EA4335"/>
<path d="M261.182 23.1271V123.061L338 65.4069V34.6576C338 6.13852 305.468 -10.1194 282.692 6.98411L261.182 23.1271Z" fill="#FBBC04"/>
<path d="M0 65.4069L35.3302 91.9243L76.8184 123.061V23.1271L55.3079 6.98417C32.4929 -10.1207 0 6.13857 0 34.6563V65.4056V65.4069Z" fill="#C5221F"/>
</g>
<defs>
<clipPath id="clip0">
<rect width="338" height="255" fill="white"/>
</clipPath>
</defs>
</svg>
