<svg width="201" height="201" viewBox="0 0 201 201" fill="none" xmlns="http://www.w3.org/2000/svg">
<path fill-rule="evenodd" clip-rule="evenodd" d="M23.3191 77.0236V157.769H177.681V77.0236L100.5 115.402L23.3191 77.0236Z" fill="#FCC21B"/>
<path fill-rule="evenodd" clip-rule="evenodd" d="M23.3191 43.2311V64.6973L100.5 103.06L177.681 64.6973V43.2311H23.3191Z" fill="#FCC21B"/>
<path d="M100.531 60.897C125.028 60.897 141.532 77.3225 141.689 101.804C141.705 102.008 141.705 102.29 141.721 102.62C141.736 104.63 141.391 108.729 139.067 112.702C138.863 113.078 138.659 113.455 138.407 113.817C135.848 117.491 130.901 119.878 125.766 119.894H125.735C120.867 119.894 116.407 117.899 113.424 114.429C109.906 118.653 104.52 121.401 97.6263 121.417H97.5635C89.8062 121.417 83.8547 118.025 80.4471 112.859C78.547 109.969 77.4478 106.515 77.2594 102.793C77.2277 102.427 77.2119 102.061 77.2123 101.694C77.1809 90.78 85.001 81.9078 97.5478 81.8764H97.5792C101.599 81.8764 105.07 82.85 108.022 84.4517V83.3682C108.022 82.8971 108.399 82.5045 108.885 82.5045L119.281 82.4731C119.752 82.4731 120.145 82.85 120.145 83.3367L120.192 97.2026H120.255C120.302 98.663 120.584 100.767 121.087 102.667C121.479 104.19 122.029 105.588 122.704 106.405C123.568 107.425 124.934 107.598 125.704 107.598H125.751C127.085 107.598 128.137 107.017 128.357 106.782C129.347 105.368 129.504 103.405 129.472 102.652V102.526L129.457 102.039C129.425 88.0791 121.825 73.1768 100.579 73.1768H100.469C83.4464 73.2082 71.5748 84.7029 71.622 101.128C71.622 101.694 71.6691 102.243 71.7005 102.793C71.8889 106.452 72.6741 109.828 73.9774 112.859C78.2016 122.704 87.9375 128.939 100.484 128.939H100.563C107.582 128.923 113.879 126.991 118.778 123.364L126.096 133.226C119.077 138.423 110.267 141.187 100.594 141.203H100.469C80.9025 141.203 65.749 129.818 60.9438 112.89C60.033 109.718 59.5305 106.342 59.3892 102.824C59.3735 102.275 59.3107 101.725 59.3107 101.16C59.2636 77.9035 76.537 60.9598 100.406 60.9127C100.437 60.897 100.484 60.897 100.531 60.897V60.897ZM97.5478 110.77H97.5792C102.95 110.754 106.404 107.237 106.891 102.699C106.938 102.338 106.985 101.976 106.985 101.599C106.97 96.5745 103.342 92.476 97.5478 92.476H97.5164C91.7219 92.4917 88.1102 96.6059 88.1259 101.647C88.1259 102.023 88.1887 102.385 88.2359 102.746C88.7384 107.268 92.193 110.77 97.5478 110.77V110.77ZM100.531 52.5272H100.374C86.6498 52.5586 74.0873 57.458 65.0266 66.346C55.9031 75.281 50.9095 87.6551 50.9252 101.175C50.9252 101.694 50.9566 102.212 50.988 102.73L51.0195 103.123C51.1922 107.378 51.8046 111.414 52.8881 115.198C58.8396 136.099 77.5106 149.604 100.469 149.604C112.089 149.588 122.61 146.259 131.074 139.978C132.857 138.655 134.042 136.678 134.369 134.481C134.696 132.285 134.138 130.049 132.817 128.263L132.205 127.447C137.575 126.034 142.302 122.909 145.285 118.622C145.662 118.072 145.992 117.507 146.306 116.941C149.635 111.241 150.106 105.51 150.09 102.589C150.09 102.181 150.075 101.851 150.059 101.599C149.776 72.6743 129.441 52.5272 100.531 52.5272V52.5272Z" fill="#FCC21B"/>
<path fill-rule="evenodd" clip-rule="evenodd" d="M141.689 101.804C141.532 77.2756 124.965 60.8345 100.406 60.8973C76.537 60.9444 59.2636 77.8881 59.3107 101.144C59.3107 101.71 59.3735 102.259 59.3892 102.809C59.5305 106.342 60.033 109.703 60.9438 112.875C65.7804 129.85 80.9653 141.234 100.594 141.187C110.252 141.172 119.077 138.408 126.096 133.21L118.778 123.349C113.895 126.976 107.582 128.892 100.563 128.923C87.9846 128.955 78.2173 122.705 73.9303 112.843C72.627 109.813 71.8418 106.421 71.6534 102.778C71.622 102.228 71.5748 101.678 71.5748 101.113C71.5434 84.6875 83.3993 73.2085 100.421 73.1614C121.746 73.1143 129.378 88.048 129.409 102.024L129.425 102.511V102.636C129.457 103.39 129.3 105.353 128.31 106.766C128.09 107.002 127.038 107.583 125.704 107.583C124.95 107.583 123.536 107.426 122.657 106.389C121.966 105.573 121.432 104.159 121.04 102.652C120.537 100.752 120.239 98.6476 120.207 97.1872H120.145L120.098 83.3213C120.098 82.8503 119.705 82.4577 119.234 82.4577L108.838 82.4891C108.367 82.4891 107.975 82.8817 107.975 83.3528V84.4363C105.022 82.8345 101.536 81.8452 97.5007 81.861C84.9696 81.8924 77.1495 90.7646 77.1652 101.678C77.1652 102.055 77.1966 102.416 77.2123 102.778C77.4007 106.515 78.4999 109.954 80.4 112.843C83.8233 118.025 89.7905 121.433 97.5792 121.401C104.473 121.386 109.859 118.638 113.377 114.414C116.36 117.884 120.836 119.894 125.719 119.878C130.854 119.863 135.801 117.491 138.36 113.801C138.611 113.44 138.816 113.063 139.02 112.686C141.344 108.713 141.689 104.599 141.674 102.605C141.705 102.291 141.689 102.008 141.689 101.804ZM106.891 102.699C106.404 107.237 102.95 110.755 97.5792 110.77C92.2087 110.786 88.7384 107.269 88.2359 102.746C88.1887 102.385 88.1259 102.024 88.1259 101.647C88.1102 96.6062 91.7377 92.492 97.5164 92.4763C103.327 92.4606 106.97 96.5591 106.985 101.6C106.985 101.977 106.923 102.338 106.891 102.699Z" fill="#ED6C30"/>
</svg>
