<svg width="65" height="92" viewBox="0 0 65 92" fill="none" xmlns="http://www.w3.org/2000/svg">
<path d="M64.887 18.0345L58.986 84.3867L32.4604 91.7676L6.00792 84.3969L0.112976 18.0345H64.887Z" fill="#E44D26"/>
<path d="M32.5 86.1257L53.934 80.1615L58.9766 23.4604H32.5V86.1257Z" fill="#F16529"/>
<path d="M21.0285 39.7389H32.5V31.5999H12.1664L12.3604 33.7834L14.3536 56.2125H32.5V48.0735H21.7697L21.0285 39.7389Z" fill="#EBEBEB"/>
<path d="M22.8561 60.2822H14.7159L15.8519 73.0618L32.4627 77.6898L32.5 77.6797V69.2116L32.4644 69.221L23.4335 66.7734L22.8561 60.2822Z" fill="#EBEBEB"/>
<path d="M6.13947 0H10.2604V4.08648H14.0301V0H18.1513V12.3749H14.0304V8.23107H10.2606V12.3749H6.13972V0H6.13947Z" fill="black"/>
<path d="M23.5701 4.10381H19.9428V0H31.3214V4.10381H27.6918V12.3749H23.5709V4.10381H23.5706H23.5701Z" fill="black"/>
<path d="M33.1271 0H37.424L40.0672 4.34821L42.7078 0H47.0064V12.3749H42.9023V6.24122L40.0672 10.6412H39.9961L37.1592 6.24122V12.3749H33.1271V0Z" fill="black"/>
<path d="M49.0572 0H53.1794V8.28458H58.9746V12.3749H49.057V0H49.0572Z" fill="black"/>
<path d="M32.4721 56.2126H42.4574L41.5159 66.7683L32.4718 69.2184V77.686L49.0958 73.0618L49.2177 71.6866L51.1235 50.2591L51.3213 48.0735H32.4721V56.2126Z" fill="white"/>
<path d="M32.472 39.719V39.7389H52.0591L52.2216 37.9096L52.5913 33.7834L52.7851 31.5999H32.472V39.7193V39.719Z" fill="white"/>
</svg>
