<svg width="153" height="153" viewBox="0 0 153 153" fill="none" xmlns="http://www.w3.org/2000/svg">
<path d="M0 0H153V153H0V0Z" fill="#F7DF1E"/>
<path d="M40.2295 127.858L51.9376 120.772C54.1967 124.777 56.2514 128.166 61.1803 128.166C65.9048 128.166 68.8841 126.318 68.8841 119.129V70.2421H83.2619V119.332C83.2619 134.224 74.5326 141.003 61.7965 141.003C50.2946 141.003 43.6182 135.046 40.2289 127.857" fill="black"/>
<path d="M91.0715 126.317L102.778 119.539C105.86 124.572 109.866 128.269 116.952 128.269C122.91 128.269 126.709 125.29 126.709 121.182C126.709 116.252 122.806 114.506 116.233 111.631L112.639 110.089C102.266 105.674 95.3847 100.128 95.3847 88.4199C95.3847 77.6358 103.601 69.4192 116.439 69.4192C125.58 69.4192 132.153 72.6035 136.876 80.9223L125.681 88.1121C123.216 83.696 120.547 81.9502 116.438 81.9502C112.227 81.9502 109.557 84.6206 109.557 88.1121C109.557 92.4254 112.227 94.1723 118.389 96.8426L121.983 98.3828C134.206 103.621 141.086 108.961 141.086 120.977C141.086 133.918 130.919 141.004 117.26 141.004C103.909 141.004 95.2814 134.637 91.0709 126.317" fill="black"/>
</svg>
