<svg width="185" height="60" viewBox="0 0 185 60" fill="none" xmlns="http://www.w3.org/2000/svg">
<circle cx="30" cy="30" r="30" fill="#C4C4C4"/>
<path d="M21 35.5714L17.08 23.8714H17C17.0133 24.1381 17.0333 24.5181 17.06 25.0114C17.0867 25.4914 17.1067 26.0181 17.12 26.5914C17.1467 27.1514 17.16 27.6781 17.16 28.1714V35.5714H14.86V21.2914H18.42L22.18 32.5114H22.26L26.18 21.2914H29.74V35.5714H27.3V28.0514C27.3 27.5981 27.3067 27.1047 27.32 26.5714C27.3467 26.0247 27.3667 25.5114 27.38 25.0314C27.4067 24.5514 27.4267 24.1714 27.44 23.8914H27.36L23.28 35.5714H21ZM45.1142 28.2914C45.1142 30.7047 44.4409 32.5247 43.0942 33.7514C41.7476 34.9647 39.8676 35.5714 37.4542 35.5714H33.4342V21.2914H37.8742C39.3409 21.2914 40.6142 21.5581 41.6942 22.0914C42.7876 22.6247 43.6276 23.4114 44.2142 24.4514C44.8142 25.4781 45.1142 26.7581 45.1142 28.2914ZM42.4342 28.3714C42.4342 26.6647 42.0409 25.4114 41.2542 24.6114C40.4809 23.8114 39.3542 23.4114 37.8742 23.4114H35.9942V33.4314H37.5342C40.8009 33.4314 42.4342 31.7447 42.4342 28.3714Z" fill="black"/>
<path d="M93.54 30.72C93.54 33.1333 92.8667 34.9533 91.52 36.18C90.1733 37.3933 88.2933 38 85.88 38H81.86V23.72H86.3C87.7667 23.72 89.04 23.9867 90.12 24.52C91.2133 25.0533 92.0533 25.84 92.64 26.88C93.24 27.9067 93.54 29.1867 93.54 30.72ZM90.86 30.8C90.86 29.0933 90.4667 27.84 89.68 27.04C88.9067 26.24 87.78 25.84 86.3 25.84H84.42V35.86H85.96C89.2267 35.86 90.86 34.1733 90.86 30.8ZM105.471 38H95.1113V36.26L102.211 25.88H95.3113V23.72H105.271V25.46L98.1913 35.84H105.471V38ZM116.735 38L115.435 34.22H110.055L108.775 38H106.055L111.295 23.66H114.215L119.455 38H116.735ZM113.535 28.34C113.481 28.1533 113.401 27.9 113.295 27.58C113.188 27.26 113.081 26.9333 112.975 26.6C112.881 26.2533 112.808 25.9667 112.755 25.74C112.688 26.0067 112.601 26.3133 112.495 26.66C112.401 27.0067 112.308 27.3333 112.215 27.64C112.121 27.9467 112.055 28.18 112.015 28.34L110.755 32.02H114.775L113.535 28.34ZM121.333 38V23.72H123.893V35.84H129.853V38H121.333ZM134.849 38H132.329V23.72H140.429V25.86H134.849V30.06H140.049V32.2H134.849V38ZM147.93 38H141.93V36.54L143.65 35.9V25.84L141.93 25.18V23.72H147.93V25.18L146.21 25.84V35.9L147.93 36.54V38ZM163.253 30.84C163.253 32.4933 162.939 33.92 162.313 35.12C161.699 36.3067 160.759 37.1533 159.493 37.66L162.933 41.4H159.533L156.873 38.2C156.819 38.2 156.759 38.2 156.693 38.2C156.639 38.2 156.586 38.2 156.533 38.2C155.013 38.2 153.753 37.8933 152.753 37.28C151.766 36.6667 151.026 35.8067 150.533 34.7C150.053 33.5933 149.813 32.3 149.813 30.82C149.813 29.3533 150.053 28.0733 150.533 26.98C151.026 25.8733 151.766 25.02 152.753 24.42C153.753 23.8067 155.019 23.5 156.553 23.5C158.059 23.5 159.306 23.8067 160.293 24.42C161.293 25.02 162.033 25.8733 162.513 26.98C163.006 28.0733 163.253 29.36 163.253 30.84ZM152.513 30.84C152.513 32.4533 152.833 33.72 153.473 34.64C154.113 35.56 155.133 36.02 156.533 36.02C157.946 36.02 158.966 35.56 159.593 34.64C160.233 33.72 160.553 32.4533 160.553 30.84C160.553 29.2267 160.239 27.96 159.613 27.04C158.986 26.12 157.966 25.66 156.553 25.66C155.153 25.66 154.126 26.12 153.473 27.04C152.833 27.96 152.513 29.2267 152.513 30.84ZM170.354 23.72C172.234 23.72 173.62 24.0667 174.514 24.76C175.42 25.4533 175.874 26.5067 175.874 27.92C175.874 28.6133 175.74 29.2067 175.474 29.7C175.22 30.1933 174.887 30.6067 174.474 30.94C174.06 31.26 173.614 31.52 173.134 31.72L177.234 38H174.354L170.934 32.36H168.854V38H166.294V23.72H170.354ZM170.194 25.86H168.854V30.26H170.274C171.327 30.26 172.087 30.0733 172.554 29.7C173.034 29.3133 173.274 28.7467 173.274 28C173.274 27.2267 173.02 26.68 172.514 26.36C172.02 26.0267 171.247 25.86 170.194 25.86ZM184.063 38H178.063V36.54L179.783 35.9V25.84L178.063 25.18V23.72H184.063V25.18L182.343 25.84V35.9L184.063 36.54V38Z" fill="#292929"/>
</svg>

